<svg xmlns="http://www.w3.org/2000/svg" xmlns:svg="http://www.w3.org/2000/svg" id="svg4841" width="744.094" height="1052.362" version="1.1"><metadata id="metadata4846"/><g id="layer1"><path style="fill:#efa;fill-opacity:.6585366;stroke:none" id="rect4903" d="m 394.75,347.15625 -49.25,40.21875 -110.75,0 -48.75,-20.5 -162.5,0 0,16 162.5,0 48.5,20.5 111,0 49.25,-40.25 111,0 0,-16 -111,0.0312 0,5e-5 z"/><rect style="fill:#efa;fill-opacity:.6585366;stroke:none" id="rect5432" width="481.009" height="15.91" x="24.042" y="427.81"/><rect style="fill:none;stroke:#000;stroke-width:.99999994;stroke-miterlimit:4;stroke-opacity:1;stroke-dasharray:none;stroke-dashoffset:0" id="rect4867" width="107.5" height="146" x="76" y="310.862"/><text style="font-size:12px;font-style:normal;font-weight:400;fill:#000;fill-opacity:1;stroke:none;font-family:Bitstream Vera Sans" id="text4851" x="102" y="329.362" xml:space="preserve"><tspan id="tspan4853" x="102" y="329.362">Record A</tspan></text><path style="fill:none;stroke:#000;stroke-width:1px;stroke-linecap:butt;stroke-linejoin:miter;stroke-opacity:1" id="path4855" d="m 91,354.36218 76,0"/><path id="path4857" d="m 91,374.86218 76,0" style="fill:none;stroke:#000;stroke-width:1px;stroke-linecap:butt;stroke-linejoin:miter;stroke-opacity:1"/><path style="fill:none;stroke:#000;stroke-width:1px;stroke-linecap:butt;stroke-linejoin:miter;stroke-opacity:1" id="path4861" d="m 91,395.36218 76,0"/><path id="path4863" d="m 91,415.86218 76,0" style="fill:none;stroke:#000;stroke-width:1px;stroke-linecap:butt;stroke-linejoin:miter;stroke-opacity:1"/><path style="fill:none;stroke:#000;stroke-width:1px;stroke-linecap:butt;stroke-linejoin:miter;stroke-opacity:1" id="path4865" d="m 91,436.36218 76,0"/><rect id="rect4869" width="107.5" height="146" x="236" y="310.862" style="fill:none;stroke:#000;stroke-width:.99999994;stroke-miterlimit:4;stroke-opacity:1;stroke-dasharray:none;stroke-dashoffset:0"/><text id="text4871" x="262" y="329.362" xml:space="preserve" style="font-size:12px;font-style:normal;font-weight:400;fill:#000;fill-opacity:1;stroke:none;font-family:Bitstream Vera Sans"><tspan id="tspan4873" x="262" y="329.362">Record B</tspan></text><path id="path4875" d="m 251,354.36218 76,0" style="fill:none;stroke:#000;stroke-width:1px;stroke-linecap:butt;stroke-linejoin:miter;stroke-opacity:1"/><path style="fill:none;stroke:#000;stroke-width:1px;stroke-linecap:butt;stroke-linejoin:miter;stroke-opacity:1" id="path4877" d="m 251,374.86218 76,0"/><path id="path4879" d="m 251,395.36218 76,0" style="fill:none;stroke:#000;stroke-width:1px;stroke-linecap:butt;stroke-linejoin:miter;stroke-opacity:1"/><path style="fill:none;stroke:#000;stroke-width:1px;stroke-linecap:butt;stroke-linejoin:miter;stroke-opacity:1" id="path4881" d="m 251,415.86218 76,0"/><path id="path4883" d="m 251,436.36218 76,0" style="fill:none;stroke:#000;stroke-width:1px;stroke-linecap:butt;stroke-linejoin:miter;stroke-opacity:1"/><rect style="fill:none;stroke:#000;stroke-width:.99999994;stroke-miterlimit:4;stroke-opacity:1;stroke-dasharray:none;stroke-dashoffset:0" id="rect4885" width="107.5" height="146" x="396" y="310.862"/><text style="font-size:12px;font-style:normal;font-weight:400;fill:#000;fill-opacity:1;stroke:none;font-family:Bitstream Vera Sans" id="text4887" x="422" y="329.362" xml:space="preserve"><tspan id="tspan4889" x="422" y="329.362">Record C</tspan></text><path style="fill:none;stroke:#000;stroke-width:1px;stroke-linecap:butt;stroke-linejoin:miter;stroke-opacity:1" id="path4891" d="m 411,354.36218 76,0"/><path id="path4893" d="m 411,374.86218 76,0" style="fill:none;stroke:#000;stroke-width:1px;stroke-linecap:butt;stroke-linejoin:miter;stroke-opacity:1"/><path style="fill:none;stroke:#000;stroke-width:1px;stroke-linecap:butt;stroke-linejoin:miter;stroke-opacity:1" id="path4895" d="m 411,395.36218 76,0"/><path id="path4897" d="m 411,415.86218 76,0" style="fill:none;stroke:#000;stroke-width:1px;stroke-linecap:butt;stroke-linejoin:miter;stroke-opacity:1"/><path style="fill:none;stroke:#000;stroke-width:1px;stroke-linecap:butt;stroke-linejoin:miter;stroke-opacity:1" id="path4899" d="m 411,436.36218 76,0"/><text style="font-size:12px;font-style:normal;font-weight:400;fill:#000;fill-opacity:1;stroke:none;font-family:Bitstream Vera Sans" id="text5428" x="28.991" y="379.904" xml:space="preserve"><tspan id="tspan5430" x="28.991" y="379.904">LIVE</tspan></text><text id="text5434" x="28.991" y="440.33" xml:space="preserve" style="font-size:12px;font-style:normal;font-weight:400;fill:#000;fill-opacity:1;stroke:none;font-family:Bitstream Vera Sans"><tspan id="tspan5436" x="28.991" y="440.33">LAST</tspan></text></g></svg>